<?xml version="1.0" encoding="UTF-8" standalone="no"?>
<svg xmlns="http://www.w3.org/2000/svg" width="600" height="400">
  <title>Batman Logo - 1986</title>
  <rect width="600" height="400" style="fill:white"/>
  
  <path d="M 258,243 C 220,201 221,220 253,281 154,243 150,108 229,61.9 242,83 257,98.1 275,110 278,88 282,65.8 285,43.6 287,49.9 288,56.2 290,62.5 293,62.7 297,62.9 300,62.9 303,62.9 307,62.7 310,62.5 312,56.2 313,49.9 315,43.6 318,65.8 322,88 325,110 343,98.1 358,83 371,61.9 450,108 446,243 347,281 379,220 380,201 342,243 330,187 329,202 300,271 271,202 270,187 258,243 Z" 
        style="fill:black"/>
  
  <g style="font-size:32px;text-anchor:middle">
    <text x="300" y="320">1986</text>
  </g>
  
  <g style="font-size:24px;font-style:italic;text-anchor:middle">
    <text x="300" y="350">Batman: Legends of the Dark Knight</text>
  </g>
  
  <g style="font-size:20px;text-anchor:middle">
    <text x="300" y="378">DC Comics</text>
  </g>
</svg>