<?xml version="1.0" encoding="UTF-8" standalone="no"?>
<svg xmlns="http://www.w3.org/2000/svg" width="600" height="400">
  <title>Batman Logo - 1998</title>
  <rect width="600" height="400" style="fill:white"/>
  
  <path d="M 231,185 C 186,159 161,180 190,215 86.2,180 92.6,99.6 211,68.9 195,112 254,141 279,96.7 279,83.2 279,69.8 279,56.3 283,63.6 288,70.8 292,78.1 295,78.1 297,78.1 300,78.1 303,78.1 305,78.1 308,78.1 312,70.8 317,63.6 321,56.3 321,69.8 321,83.2 321,96.7 346,141 405,112 389,68.9 507,99.6 514,180 410,215 439,180 414,159 369,185 351,165 324,167 300,216 276,167 249,165 231,185 Z" 
        style="fill:black"/>
  
  <g style="font-size:32px;text-anchor:middle">
    <text x="300" y="320">1998</text>
  </g>
  
  <g style="font-size:24px;font-style:italic;text-anchor:middle">
    <text x="300" y="350">The Batman Chronicles</text>
  </g>
  
  <g style="font-size:20px;text-anchor:middle">
    <text x="300" y="378">DC Comics</text>
  </g>
</svg>