<?xml version="1.0" encoding="UTF-8" standalone="no"?>
<svg xmlns="http://www.w3.org/2000/svg" width="600" height="400">
  <title>Batman Logo - 2003 Dead End</title>
  <rect width="600" height="400" style="fill:white"/>
  
  <path d="M 202,170 C 188,115 157,108 124,105 146,84.3 171,71.5 199,70.2 211,98.6 243,103 277,106 279,99.3 281,92.6 283,86 285,91.9 287,97.9 290,104 293,104 297,104 300,104 303,104 307,104 310,104 313,97.9 315,91.9 317,86 319,92.6 321,99.3 323,106 357,103 389,98.6 401,70.2 429,71.5 454,84.3 476,105 443,108 412,115 398,170 349,157 318,175 300,214 282,175 251,157 202,170 Z" 
        style="fill:black"/>
  
  <g style="font-size:32px;text-anchor:middle">
    <text x="300" y="320">2003</text>
  </g>
  
  <g style="font-size:24px;font-style:italic;text-anchor:middle">
    <text x="300" y="350">Batman Dead End</text>
  </g>
  
  <g style="font-size:20px;text-anchor:middle">
    <text x="300" y="378">Movie</text>
  </g>
</svg>