<?xml version="1.0" encoding="UTF-8" standalone="no"?>
<svg xmlns="http://www.w3.org/2000/svg" width="600" height="400">
  <title>Batman Logo - 2005</title>
  <rect width="600" height="400" style="fill:white"/>
  
  <path d="M 220,179 C 200,127 150,130 123,175 122,110 160,85.1 201,64 208,99.2 243,111 268,92.9 278,86.1 284,68.2 287,40.7 289,49.6 292,58.4 294,67.3 296,67.3 298,67.3 300,67.3 302,67.3 304,67.3 306,67.3 308,58.4 311,49.6 313,40.7 316,68.2 322,86.1 332,92.9 357,111 392,99.3 399,64 440,85.1 478,110 477,175 450,130 400,127 380,179 355,155 305,208 300,247 295,208 245,155 220,179 Z" 
        style="fill:black"/>
  
  <g style="font-size:32px;text-anchor:middle">
    <text x="300" y="320">2005</text>
  </g>
  
  <g style="font-size:24px;font-style:italic;text-anchor:middle">
    <text x="300" y="350">Batman Begins</text>
  </g>
  
  <g style="font-size:20px;text-anchor:middle">
    <text x="300" y="378">Movie</text>
  </g>
</svg>