<?xml version="1.0" encoding="UTF-8" standalone="no"?>
<svg xmlns="http://www.w3.org/2000/svg" width="600" height="400">
  <title>Batman Logo - 1995 Forever</title>
  <rect width="600" height="400" style="fill:white"/>
  
  <path d="M 264,212 C 213,138 150,171 232,244 101,217 112,55.1 257,36.9 182,86.6 222,106 266,106 285,106 284,66.7 286,36.8 288,42.6 289,48.4 291,54.2 291,54.2 297,54.2 300,54.2 303,54.2 309,54.2 309,54.2 311,48.4 312,42.6 314,36.8 316,66.7 315,106 334,106 378,106 418,86.6 343,36.9 488,55.1 499,217 368,244 450,171 387,138 336,212 354,161 300,163 300,249 300,163 246,161 264,212 Z" 
        style="fill:black"/>
  
  <g style="font-size:32px;text-anchor:middle">
    <text x="300" y="320">1995</text>
  </g>
  
  <g style="font-size:24px;font-style:italic;text-anchor:middle">
    <text x="300" y="350">Batman Forever</text>
  </g>
  
  <g style="font-size:20px;text-anchor:middle">
    <text x="300" y="378">Movie</text>
  </g>
</svg>