<?xml version="1.0" encoding="UTF-8" standalone="no"?>
<svg xmlns="http://www.w3.org/2000/svg" width="600" height="400">
  <title>Batman Logo - 1966</title>
  <rect width="600" height="400" style="fill:white"/>
  
  <path d="M 212,220 C 197,171 156,153 123,221 109,157 120,109 159,63.6 190,114 234,115 254,89.8 260,82.3 268,69.6 270,60.3 273,66.5 275,71.6 280,75.6 286,79.5 294,79.8 300,79.8 306,79.8 314,79.5 320,75.6 325,71.6 327,66.5 330,60.3 332,69.6 340,82.3 346,89.8 366,115 410,114 441,63.6 480,109 491,157 477,221 444,153 403,171 388,220 366,188 316,200 300,248 284,200 234,188 212,220 Z" 
        style="fill:black"/>
  
  <g style="font-size:32px;text-anchor:middle">
    <text x="300" y="320">1966</text>
  </g>
  
  <g style="font-size:24px;font-style:italic;text-anchor:middle">
    <text x="300" y="350">Batman</text>
  </g>
  
  <g style="font-size:20px;text-anchor:middle">
    <text x="300" y="378">Television</text>
  </g>
</svg>