<?xml version="1.0" encoding="UTF-8" standalone="no"?>
<svg xmlns="http://www.w3.org/2000/svg" width="600" height="400">
  <title>Batman Logo - 2001</title>
  <rect width="600" height="400" style="fill:white"/>
  
  <path d="M 209,182 C 184,132 176,138 113,161 140,136 168,111 196,86.5 221,104 247,115 278,115 281,99.9 285,85.5 287,70.2 289,78.5 292,88.4 294,96.7 296,96.7 298,96.7 300,96.7 302,96.7 304,96.7 306,96.7 308,88.4 311,78.5 313,70.2 315,85.5 319,99.9 322,115 353,115 379,104 404,86.5 432,111 460,136 487,161 424,138 416,132 391,182 332,150 341,161 300,214 259,161 268,150 209,182 Z" 
        style="fill:black"/>
  
  <g style="font-size:32px;text-anchor:middle">
    <text x="300" y="320">2001</text>
  </g>
  
  <g style="font-size:24px;font-style:italic;text-anchor:middle">
    <text x="300" y="350">Batman Vengence</text>
  </g>
  
  <g style="font-size:20px;text-anchor:middle">
    <text x="300" y="378">Video Game</text>
  </g>
</svg>