<?xml version="1.0" encoding="UTF-8" standalone="no"?>
<svg xmlns="http://www.w3.org/2000/svg" width="600" height="400">
  <title>Batman Logo - 1995 Chronicles</title>
  <rect width="600" height="400" style="fill:white"/>
  
  <path d="M 223,217 C 194,153 165,168 133,219 143,158 161,99.2 189,38.4 214,69.8 241,84.7 272,86.2 272,70.2 273,53.5 273,37.5 275,47.9 278,58.4 280,68.8 287,64.9 292,62.4 300,62.4 308,62.4 313,64.9 320,68.8 322,58.4 325,47.9 327,37.5 327,53.5 328,70.2 328,86.2 359,84.7 386,69.8 411,38.4 439,99.2 457,158 467,219 435,168 406,153 377,217 350,162 319,176 300,245 281,176 250,162 223,217 Z" 
        style="fill:black"/>
  
  <g style="font-size:32px;text-anchor:middle">
    <text x="300" y="320">1995</text>
  </g>
  
  <g style="font-size:24px;font-style:italic;text-anchor:middle">
    <text x="300" y="350">Batman Chronicles</text>
  </g>
  
  <g style="font-size:20px;text-anchor:middle">
    <text x="300" y="378">DC Comics</text>
  </g>
</svg>