<?xml version="1.0" encoding="UTF-8" standalone="no"?>
<svg xmlns="http://www.w3.org/2000/svg" width="600" height="400">
  <title>Batman Logo - 2008</title>
  <rect width="600" height="400" style="fill:white"/>
  
  <path d="M 166,154 C 179,119 154,95.4 114,79.3 155,79.1 197,78.9 239,78.7 242,103 250,109 283,109 289,109 290,93.9 291,83.7 292,88.3 292,92.9 293,97.5 295,97.5 298,97.5 300,97.5 302,97.5 305,97.5 307,97.5 308,92.9 308,88.3 309,83.7 310,93.9 311,109 317,109 350,109 358,103 361,78.7 403,78.9 445,79.1 486,79.3 446,95.4 421,119 434,154 377,151 320,151 300,207 280,151 223,151 166,154 Z" 
        style="fill:black"/>
  
  <g style="font-size:32px;text-anchor:middle">
    <text x="300" y="320">2008</text>
  </g>
  
  <g style="font-size:24px;font-style:italic;text-anchor:middle">
    <text x="300" y="350">The Dark Knight</text>
  </g>
  
  <g style="font-size:20px;text-anchor:middle">
    <text x="300" y="378">Movie</text>
  </g>
</svg>