<?xml version="1.0" encoding="UTF-8" standalone="no"?>
<svg xmlns="http://www.w3.org/2000/svg" width="600" height="400">
  <title>Batman Logo - 1992</title>
  <rect width="600" height="400" style="fill:white"/>
  
  <path d="M 235,210 C 214,139 143,145 183,229 108,175 135,70.1 242,48.3 190,85.6 245,142 278,95.5 281,80.2 281,62.7 284,48.7 287,53.9 287,59.1 289,64.5 292,64.7 297,64.2 300,64.2 303,64.2 308,64.7 311,64.5 313,59.1 313,53.9 316,48.7 319,62.7 319,80.2 322,95.5 355,142 410,85.6 358,48.3 465,70.1 492,175 417,229 457,145 386,139 365,210 357,147 309,190 300,271 291,190 243,147 235,210 Z" 
        style="fill:black"/>
  
  <g style="font-size:32px;text-anchor:middle">
    <text x="300" y="320">1992</text>
  </g>
  
  <g style="font-size:24px;font-style:italic;text-anchor:middle">
    <text x="300" y="350">Batman Returns</text>
  </g>
  
  <g style="font-size:20px;text-anchor:middle">
    <text x="300" y="378">Movie</text>
  </g>
</svg>