<?xml version="1.0" encoding="UTF-8" standalone="no"?>
<svg xmlns="http://www.w3.org/2000/svg" width="600" height="400">
  <title>Batman Logo - 1993</title>
  <rect width="600" height="400" style="fill:white"/>
  
  <path d="M 249,157 C 214,157 201,203 273,255 157,221 157,69 274,32.8 188,87.2 211,140 256,140 291,140 289,128 291,98.1 293,107 293,116 295,125 297,125 298,125 300,125 302,125 305,125 305,125 307,116 307,107 309,98.1 311,128 309,140 344,140 389,140 412,87.2 326,32.8 443,69 443,221 327,255 399,203 386,157 351,157 317,157 300,195 300,238 300,195 283,157 249,157 Z" 
        style="fill:black"/>
  
  <g style="font-size:32px;text-anchor:middle">
    <text x="300" y="320">1993</text>
  </g>
  
  <g style="font-size:24px;font-style:italic;text-anchor:middle">
    <text x="300" y="350">Batman Knighfall</text>
  </g>
  
  <g style="font-size:20px;text-anchor:middle">
    <text x="300" y="378">DC Comics</text>
  </g>
</svg>